<svg height="512pt" viewBox="0 -11 512 512" width="512pt" xmlns="http://www.w3.org/2000/svg"><path d="m435.863281 60.644531c-48.179687-39.109375-112.058593-60.644531-179.863281-60.644531s-131.679688 21.535156-179.863281 60.644531c-49.097657 39.84375-76.136719 93.101563-76.136719 149.957031 0 53.503907 24.347656 104.472657 68.554688 143.515626 39.9375 35.269531 92.960937 58.039062 150.535156 64.875v55.855468c0 8.285156 6.714844 15 15 15 25.945312 0 96.179687-31.839844 155.476562-77.527344 35.421875-27.292968 63.808594-56.601562 84.367188-87.121093 25.257812-37.488281 38.066406-76.046875 38.066406-114.597657 0-56.855468-27.039062-110.113281-76.136719-149.957031zm0 0" fill="#54e360"/><path d="m435.863281 60.644531c-48.179687-39.109375-112.058593-60.644531-179.863281-60.644531v485.730469c33.285156-9.988281 86.820312-37.394531 133.566406-73.410157 35.421875-27.292968 63.808594-56.601562 84.367188-87.121093 25.257812-37.488281 38.066406-76.046875 38.066406-114.597657 0-56.855468-27.039062-110.113281-76.136719-149.957031zm0 0" fill="#1fbf66"/><g fill="#e7f0ef"><path d="m164.554688 246.515625h-34.703126v-88.210937c0-6.539063-6.007812-10.929688-14.945312-10.929688s-14.945312 4.390625-14.945312 10.929688v104.4375c0 6.425781 5.746093 11.085937 13.660156 11.085937h50.933594c6.238281 0 10.765624-5.742187 10.765624-13.65625 0-8.042969-4.425781-13.65625-10.765624-13.65625zm0 0"/><path d="m197.667969 147.375c-8.9375 0-14.941407 4.390625-14.941407 10.929688v104.4375c0 6.527343 6.144532 11.085937 14.941407 11.085937 8.660156 0 14.941406-4.660156 14.941406-11.085937v-104.4375c0-6.539063-6.003906-10.929688-14.941406-10.929688zm0 0"/><path d="m299.871094 147.375c-8.9375 0-14.941406 4.390625-14.941406 10.929688v46.097656l-22.527344-43.535156c-5.5-10.46875-9.890625-13.492188-19.566406-13.492188-8.941407 0-14.945313 4.457031-14.945313 11.089844v104.277344c0 6.527343 6.144531 11.085937 14.945313 11.085937 8.65625 0 14.941406-4.660156 14.941406-11.085937v-46.636719l26.101562 48.800781c3.246094 5.921875 8.628906 8.921875 15.996094 8.921875 8.65625 0 14.941406-4.660156 14.941406-11.085937v-104.4375c0-6.539063-6.003906-10.929688-14.945312-10.929688zm0 0"/></g><path d="m400.949219 246.515625h-40.96875v-23.296875h19.921875c7.203125 0 11.085937-6.457031 11.085937-12.535156 0-7.328125-4.765625-12.855469-11.085937-12.855469h-19.921875v-23.132813h40.96875c6.429687 0 11.089843-5.8125 11.089843-13.820312 0-7.820312-4.660156-13.5-11.089843-13.5h-57.199219c-7.914062 0-13.65625 4.664062-13.65625 11.089844v104.277344c0 6.425781 5.742188 11.085937 13.65625 11.085937h57.199219c6.429687 0 11.089843-5.675781 11.089843-13.5 0-8.003906-4.660156-13.8125-11.089843-13.8125zm0 0" fill="#c5e1e6"/><path d="m299.871094 147.375c-8.9375 0-14.941406 4.390625-14.941406 10.929688v46.097656l-22.527344-43.535156c-2.171875-4.140626-4.179688-7.101563-6.402344-9.183594v116.546875c1.140625-1.589844 1.777344-3.449219 1.777344-5.488281v-46.636719l26.101562 48.800781c3.246094 5.921875 8.628906 8.921875 15.996094 8.921875 8.65625 0 14.941406-4.660156 14.941406-11.085937v-104.4375c0-6.539063-6.003906-10.929688-14.945312-10.929688zm0 0" fill="#c5e1e6"/></svg>